<svg width="29" height="28" viewBox="0 0 29 28" fill="none" xmlns="http://www.w3.org/2000/svg">
<g id="calender">
<path fill-rule="evenodd" clip-rule="evenodd" d="M10.4194 0C11.0077 0 11.4845 0.432498 11.4845 0.966011V2.58969C12.4349 2.57603 13.4909 2.57603 14.6641 2.57603H14.6955C15.8686 2.57603 16.9246 2.57603 17.875 2.58969V0.966011C17.875 0.432498 18.3519 0 18.9401 0C19.5284 0 20.0052 0.432498 20.0052 0.966011V2.65792C22.1523 2.78001 23.8018 3.09555 25.1599 3.99046C25.8531 4.44727 26.4628 5.00019 26.9664 5.62893C27.7984 6.66748 28.1709 7.88386 28.3502 9.38509C28.5259 10.8562 28.5259 12.7104 28.5259 15.0759V15.1489C28.5259 16.6429 28.5259 17.9273 28.4842 19.0313C28.3931 21.4443 28.1052 23.2179 26.9664 24.6394C26.4628 25.2681 25.8531 25.8211 25.1599 26.2779C23.5926 27.3107 21.6371 27.5718 18.9766 27.6545C17.7592 27.6923 16.3427 27.6923 14.6951 27.6923H14.6155C12.0074 27.6923 9.963 27.6923 8.34104 27.5329C6.68584 27.3703 5.34471 27.0324 4.19963 26.2779C3.50641 25.8211 2.89678 25.2681 2.39312 24.6394C1.56118 23.6009 1.18866 22.3845 1.00933 20.8833C0.833597 19.4122 0.833607 17.5579 0.833618 15.1925V15.0759C0.833607 12.7104 0.833597 10.8562 1.00933 9.38509C1.18866 7.88386 1.56118 6.66748 2.39312 5.62893C2.89678 5.00019 3.50641 4.44727 4.19963 3.99046C5.55772 3.09554 7.20723 2.78001 9.35433 2.65792V0.966011C9.35433 0.432498 9.83119 0 10.4194 0ZM9.35433 4.59467C7.42005 4.71532 6.30359 4.99215 5.45172 5.5535C4.93934 5.89114 4.48874 6.29982 4.11647 6.76454C3.59233 7.41886 3.2868 8.25634 3.12711 9.59319C2.96526 10.9481 2.9638 12.6978 2.9638 15.1342C2.9638 17.5705 2.96526 19.3202 3.12711 20.6751C3.2868 22.012 3.59233 22.8495 4.11647 23.5038C4.48874 23.9685 4.93934 24.3772 5.45172 24.7148C6.17315 25.1902 7.09653 25.4673 8.57049 25.6122C10.0644 25.759 11.9935 25.7603 14.6798 25.7603C15.8845 25.7603 16.9403 25.7602 17.8776 25.7464C17.8838 25.135 17.9048 24.6849 17.9756 24.2797C18.529 21.1107 21.2693 18.6253 24.7633 18.1234C25.2101 18.0592 25.7063 18.0402 26.3804 18.0345C26.3957 17.1844 26.3957 16.2269 26.3957 15.1342C26.3957 12.6978 26.3943 10.9481 26.2324 9.59319C26.0727 8.25634 25.7672 7.41886 25.2431 6.76454C24.8708 6.29982 24.4202 5.89114 23.9078 5.5535C23.0559 4.99215 21.9395 4.71532 20.0052 4.59467V4.83005C20.0052 5.36357 19.5284 5.79606 18.9401 5.79606C18.3519 5.79606 17.875 5.36357 17.875 4.83005V4.52194C16.9383 4.50811 15.8834 4.50805 14.6798 4.50805C13.4761 4.50805 12.4212 4.50811 11.4845 4.52194V4.83005C11.4845 5.36357 11.0077 5.79606 10.4194 5.79606C9.83119 5.79606 9.35433 5.36357 9.35433 4.83005V4.59467ZM26.3 19.9678C25.7249 19.9738 25.3877 19.9898 25.0966 20.0316C22.514 20.4026 20.4886 22.2396 20.0795 24.582C20.0334 24.846 20.0158 25.1518 20.0092 25.6734C21.941 25.5526 23.0565 25.2758 23.9078 24.7148C24.4202 24.3772 24.8708 23.9685 25.2431 23.5038C25.8616 22.7317 26.1668 21.7199 26.3 19.9678Z" fill="#2D264B"/>
<path d="M8.9993 9.98211C8.9993 10.6935 8.36349 11.2701 7.57918 11.2701C6.79487 11.2701 6.15906 10.6935 6.15906 9.98211C6.15906 9.27076 6.79487 8.6941 7.57918 8.6941C8.36349 8.6941 8.9993 9.27076 8.9993 9.98211Z" fill="#2D264B"/>
<path d="M8.9993 15.1342C8.9993 15.8455 8.36349 16.4222 7.57918 16.4222C6.79487 16.4222 6.15906 15.8455 6.15906 15.1342C6.15906 14.4228 6.79487 13.8462 7.57918 13.8462C8.36349 13.8462 8.9993 14.4228 8.9993 15.1342Z" fill="#2D264B"/>
<path d="M16.0999 9.98211C16.0999 10.6935 15.4641 11.2701 14.6798 11.2701C13.8955 11.2701 13.2597 10.6935 13.2597 9.98211C13.2597 9.27076 13.8955 8.6941 14.6798 8.6941C15.4641 8.6941 16.0999 9.27076 16.0999 9.98211Z" fill="#2D264B"/>
<path d="M16.0999 15.1342C16.0999 15.8455 15.4641 16.4222 14.6798 16.4222C13.8955 16.4222 13.2597 15.8455 13.2597 15.1342C13.2597 14.4228 13.8955 13.8462 14.6798 13.8462C15.4641 13.8462 16.0999 14.4228 16.0999 15.1342Z" fill="#2D264B"/>
<path d="M16.0999 20.2862C16.0999 20.9976 15.4641 21.5742 14.6798 21.5742C13.8955 21.5742 13.2597 20.9976 13.2597 20.2862C13.2597 19.5749 13.8955 18.9982 14.6798 18.9982C15.4641 18.9982 16.0999 19.5749 16.0999 20.2862Z" fill="#2D264B"/>
<path d="M23.2005 9.98211C23.2005 10.6935 22.5647 11.2701 21.7804 11.2701C20.9961 11.2701 20.3602 10.6935 20.3602 9.98211C20.3602 9.27076 20.9961 8.6941 21.7804 8.6941C22.5647 8.6941 23.2005 9.27076 23.2005 9.98211Z" fill="#2D264B"/>
<path d="M23.2005 15.1342C23.2005 15.8455 22.5647 16.4222 21.7804 16.4222C20.9961 16.4222 20.3602 15.8455 20.3602 15.1342C20.3602 14.4228 20.9961 13.8462 21.7804 13.8462C22.5647 13.8462 23.2005 14.4228 23.2005 15.1342Z" fill="#2D264B"/>
<path d="M8.9993 20.2862C8.9993 20.9976 8.36349 21.5742 7.57918 21.5742C6.79487 21.5742 6.15906 20.9976 6.15906 20.2862C6.15906 19.5749 6.79487 18.9982 7.57918 18.9982C8.36349 18.9982 8.9993 19.5749 8.9993 20.2862Z" fill="#2D264B"/>
</g>
</svg>
