<svg width="28" height="28" viewBox="0 0 28 28" fill="none" xmlns="http://www.w3.org/2000/svg">
<g id="feed">
<path d="M7.39576 11.2701C7.39576 10.7366 7.87261 10.3041 8.46085 10.3041H19.8218C20.41 10.3041 20.8869 10.7366 20.8869 11.2701C20.8869 11.8036 20.41 12.2361 19.8218 12.2361H8.46085C7.87261 12.2361 7.39576 11.8036 7.39576 11.2701Z" fill="#2D264B"/>
<path d="M7.39576 16.4222C7.39576 15.8887 7.87261 15.4562 8.46085 15.4562H19.8218C20.41 15.4562 20.8869 15.8887 20.8869 16.4222C20.8869 16.9557 20.41 17.3882 19.8218 17.3882H8.46085C7.87261 17.3882 7.39576 16.9557 7.39576 16.4222Z" fill="#2D264B"/>
<path d="M7.39576 21.5742C7.39576 21.0407 7.87261 20.6082 8.46085 20.6082H19.8218C20.41 20.6082 20.8869 21.0407 20.8869 21.5742C20.8869 22.1078 20.41 22.5403 19.8218 22.5403H8.46085C7.87261 22.5403 7.39576 22.1078 7.39576 21.5742Z" fill="#2D264B"/>
<path fill-rule="evenodd" clip-rule="evenodd" d="M19.8678 0.107838C21.3939 0.216608 22.6689 0.440147 23.7671 0.942412C24.0668 1.07947 24.3508 1.23607 24.6215 1.41444C25.3147 1.87124 25.9243 2.42416 26.428 3.0529C27.2599 4.09145 27.6324 5.30783 27.8118 6.80906C27.9875 8.28014 27.9875 10.1344 27.9875 12.4998V15.1925C27.9875 17.5579 27.9875 19.4122 27.8118 20.8833C27.6324 22.3845 27.2599 23.6009 26.428 24.6394C25.9243 25.2681 25.3147 25.8211 24.6215 26.2779C23.4764 27.0324 22.1353 27.3703 20.4801 27.5329C18.8581 27.6923 16.8137 27.6923 14.2056 27.6923H14.077C11.4689 27.6923 9.42455 27.6923 7.80259 27.5329C6.14739 27.3703 4.80626 27.0324 3.66118 26.2779C2.96796 25.8211 2.35833 25.2681 1.85467 24.6394C1.02273 23.6009 0.650204 22.3845 0.470875 20.8833C0.295145 19.4122 0.295154 17.5579 0.295166 15.1925V12.4999C0.295154 10.1344 0.295145 8.28014 0.470875 6.80906C0.650204 5.30783 1.02273 4.09145 1.85467 3.0529C2.35833 2.42416 2.96796 1.87124 3.66118 1.41444C4.1833 1.07038 4.75006 0.810459 5.37577 0.614647C6.41066 0.290782 7.60411 0.143835 9.00736 0.0717718C10.405 -2.94131e-06 12.0856 -1.55945e-06 14.1124 5.27506e-08H14.1846C16.4923 -4.16969e-06 18.3547 -7.62918e-06 19.8678 0.107838ZM19.7009 2.03392C18.2808 1.9327 16.5012 1.93202 14.1413 1.93202C12.08 1.93202 10.4585 1.93237 9.12778 2.0007C8.66409 2.02452 8.24485 2.05628 7.86321 2.09761C9.0444 3.1563 9.9934 3.97296 10.8406 4.58793C11.9801 5.41513 12.8413 5.80535 13.714 5.93072C14.3396 6.02058 14.9768 6.02058 15.6024 5.93072C16.4507 5.80885 17.2884 5.43664 18.3813 4.65604C19.2159 4.05985 20.1497 3.26285 21.3118 2.22419C20.8494 2.14014 20.3192 2.07799 19.7009 2.03392ZM23.4443 3.02767C21.9841 4.34583 20.783 5.39975 19.6992 6.17388C18.4555 7.0622 17.2821 7.64553 15.9356 7.83895C15.0893 7.96053 14.2271 7.96053 13.3808 7.83895C11.9956 7.63996 10.7933 7.02825 9.50948 6.09632C8.35995 5.26186 7.07036 4.11339 5.47406 2.66778C5.27353 2.75953 5.08806 2.8623 4.91327 2.97747C4.40089 3.31511 3.95029 3.72379 3.57802 4.18851C3.05388 4.84283 2.74835 5.68032 2.58866 7.01716C2.42681 8.37208 2.42534 10.1218 2.42534 12.5581V15.1342C2.42534 17.5705 2.42681 19.3202 2.58866 20.6751C2.74835 22.012 3.05388 22.8495 3.57802 23.5038C3.95029 23.9685 4.40089 24.3772 4.91327 24.7148C5.63469 25.1902 6.55808 25.4673 8.03203 25.6122C9.52592 25.759 11.4551 25.7603 14.1413 25.7603C16.8276 25.7603 18.7567 25.759 20.2506 25.6122C21.7246 25.4673 22.6479 25.1902 23.3694 24.7148C23.8818 24.3772 24.3324 23.9685 24.7046 23.5038C25.2288 22.8495 25.5343 22.012 25.694 20.6751C25.8558 19.3202 25.8573 17.5705 25.8573 15.1342V12.5581C25.8573 10.1218 25.8558 8.37208 25.694 7.01716C25.5343 5.68032 25.2288 4.84283 24.7046 4.18851C24.3506 3.74659 23.9258 3.35534 23.4443 3.02767Z" fill="#2D264B"/>
</g>
</svg>
