<svg width="28" height="28" viewBox="0 0 28 28" fill="none" xmlns="http://www.w3.org/2000/svg">
<path id="home" fill-rule="evenodd" clip-rule="evenodd" d="M14.1058 0.00485913C13.9328 -0.00161971 13.7595 -0.00161971 13.5865 0.00485913C12.444 0.0476282 11.4153 0.444068 10.2874 1.104C9.18822 1.74711 7.92278 2.68537 6.31715 3.87585L6.22987 3.94057C4.62423 5.13104 3.35876 6.0693 2.41974 6.93738C1.45618 7.82817 0.768822 8.70409 0.375934 9.79967C0.316417 9.96563 0.262885 10.1338 0.215444 10.3037C-0.0977274 11.4257 -0.0461571 12.5467 0.220314 13.8453C0.479993 15.1109 0.963363 16.629 1.57667 18.5552L1.61001 18.66C2.22329 20.5862 2.70665 22.1043 3.22549 23.2839C3.7579 24.4944 4.36181 25.4322 5.26142 26.1521C5.3977 26.2611 5.53785 26.365 5.68159 26.4636C6.58667 27.0842 7.59347 27.3826 8.80748 27.5327C10.0989 27.6923 11.7136 27.6923 13.7843 27.6923H13.908C15.9787 27.6923 17.5934 27.6923 18.8848 27.5327C20.0988 27.3826 21.1056 27.0842 22.0107 26.4636C22.1545 26.365 22.2946 26.2611 22.4309 26.1521C23.3305 25.4322 23.9344 24.4944 24.4668 23.2839C24.9857 22.1043 25.469 20.5862 26.0823 18.6599L26.1157 18.5552C26.7289 16.6291 27.2123 15.1108 27.472 13.8453C27.7385 12.5467 27.79 11.4257 27.4769 10.3037C27.4294 10.1338 27.3759 9.96564 27.3164 9.79967C26.9235 8.70409 26.2361 7.82817 25.2726 6.93738C24.3335 6.06929 23.0681 5.13104 21.4624 3.94056L21.3751 3.87583C19.7695 2.68536 18.5041 1.7471 17.4049 1.104C16.277 0.444068 15.2483 0.0476282 14.1058 0.00485913ZM13.6542 1.88932C13.7821 1.88453 13.9102 1.88453 14.0381 1.88932C14.7716 1.91678 15.5022 2.1644 16.4858 2.73993C17.4883 3.32646 18.6738 4.20386 20.3327 5.4338C21.9915 6.66374 23.1756 7.54322 24.032 8.33493C24.8723 9.11179 25.3288 9.74432 25.5811 10.4477C25.6251 10.5704 25.6646 10.6947 25.6997 10.8203C25.9008 11.5407 25.8958 12.3263 25.6634 13.4588C25.4266 14.613 24.9752 16.0348 24.3416 18.0249C23.7079 20.015 23.2542 21.4359 22.781 22.5117C22.3167 23.5674 21.8683 24.2059 21.2907 24.6681C21.19 24.7487 21.0864 24.8256 20.9801 24.8984C20.616 25.1481 20.2076 25.3334 19.6976 25.4687V22.0877C19.6976 18.7897 17.0778 16.1162 13.8462 16.1162C10.6145 16.1162 7.99467 18.7897 7.99467 22.0877V25.4687C7.48472 25.3334 7.07626 25.1481 6.71219 24.8984C6.60594 24.8256 6.50235 24.7487 6.40163 24.6681C5.82402 24.2059 5.37561 23.5674 4.91129 22.5117C4.4381 21.4359 3.98437 20.015 3.35074 18.0249C2.71711 16.0348 2.26576 14.613 2.02892 13.4588C1.79654 12.3263 1.79152 11.5407 1.99259 10.8203C2.02766 10.6947 2.06723 10.5704 2.11122 10.4477C2.36348 9.74432 2.82 9.11179 3.66034 8.33493C4.51673 7.54321 5.70077 6.66374 7.35963 5.4338C9.01849 4.20386 10.204 3.32646 11.2065 2.73993C12.1901 2.1644 12.9207 1.91678 13.6542 1.88932ZM13.8462 18.0019C16.0573 18.0019 17.8498 19.8312 17.8498 22.0877V25.736C16.8108 25.8056 15.5256 25.8066 13.8462 25.8066C12.1667 25.8066 10.8815 25.8056 9.84251 25.736V22.0877C9.84251 19.8312 11.635 18.0019 13.8462 18.0019Z" fill="black"/>
</svg>
