<svg width="29" height="28" viewBox="0 0 29 28" fill="none" xmlns="http://www.w3.org/2000/svg">
<g id="search">
<path fill-rule="evenodd" clip-rule="evenodd" d="M12.449 0C5.82162 0 0.449036 5.37258 0.449036 12C0.449036 18.6274 5.82162 24 12.449 24C19.0765 24 24.449 18.6274 24.449 12C24.449 5.37258 19.0765 0 12.449 0ZM2.29519 12C2.29519 6.39219 6.84122 1.84615 12.449 1.84615C18.0568 1.84615 22.6029 6.39219 22.6029 12C22.6029 17.6078 18.0568 22.1538 12.449 22.1538C6.84122 22.1538 2.29519 17.6078 2.29519 12Z" fill="#2D264B"/>
<path d="M22.948 21.1936C22.5875 20.8331 22.003 20.8331 21.6426 21.1935C21.2821 21.554 21.2821 22.1385 21.6425 22.499L26.5655 27.422C26.926 27.7825 27.5104 27.7825 27.8709 27.422C28.2314 27.0615 28.2314 26.4771 27.8709 26.1166L22.948 21.1936Z" fill="#2D264B"/>
</g>
</svg>
