<svg width="32" height="32" viewBox="0 0 32 32" fill="none" xmlns="http://www.w3.org/2000/svg">
<g id="Group 32">
<path id="Vector" d="M26.3848 26.8239L26.9041 27.365L26.3848 26.8239ZM5.61522 26.8239L5.09591 27.365L5.61522 26.8239ZM21.25 11.5C21.25 14.3995 18.8995 16.75 16 16.75V18.25C19.7279 18.25 22.75 15.2279 22.75 11.5H21.25ZM16 16.75C13.1005 16.75 10.75 14.3995 10.75 11.5H9.25C9.25 15.2279 12.2721 18.25 16 18.25V16.75ZM10.75 11.5C10.75 8.6005 13.1005 6.25 16 6.25V4.75C12.2721 4.75 9.25 7.77208 9.25 11.5H10.75ZM16 6.25C18.8995 6.25 21.25 8.6005 21.25 11.5H22.75C22.75 7.77208 19.7279 4.75 16 4.75V6.25ZM11.5 22.75H20.5V21.25H11.5V22.75ZM1.75 16C1.75 8.12994 8.12994 1.75 16 1.75V0.25C7.30152 0.25 0.25 7.30152 0.25 16H1.75ZM16 1.75C23.8701 1.75 30.25 8.12994 30.25 16H31.75C31.75 7.30152 24.6985 0.25 16 0.25V1.75ZM30.25 16C30.25 20.0412 28.5687 23.6885 25.8655 26.2828L26.9041 27.365C29.8899 24.4996 31.75 20.4664 31.75 16H30.25ZM25.8655 26.2828C23.3044 28.7406 19.8292 30.25 16 30.25V31.75C20.2317 31.75 24.0749 30.0802 26.9041 27.365L25.8655 26.2828ZM20.5 22.75C23.0464 22.75 25.1709 24.5637 25.6492 26.9701L27.1204 26.6777C26.5053 23.5829 23.7759 21.25 20.5 21.25V22.75ZM16 30.25C12.1708 30.25 8.69563 28.7406 6.13453 26.2828L5.09591 27.365C7.92512 30.0802 11.7683 31.75 16 31.75V30.25ZM6.13453 26.2828C3.43126 23.6885 1.75 20.0412 1.75 16H0.25C0.25 20.4664 2.11012 24.4996 5.09591 27.365L6.13453 26.2828ZM11.5 21.25C8.22405 21.25 5.49466 23.5829 4.87961 26.6777L6.35083 26.9701C6.82908 24.5637 8.95357 22.75 11.5 22.75V21.25Z" fill="black"/>
</g>
</svg>
